<svg xmlns="http://www.w3.org/2000/svg" xmlns:xlink="http://www.w3.org/1999/xlink" version="1.1" width="1000" height="1000" viewBox="0 0 1000 1000" xml:space="preserve">
<desc>Created with Fabric.js 3.5.0</desc>
<defs>
</defs>
<rect x="0" y="0" width="100%" height="100%" fill="#ffffff"/>
<g transform="matrix(1.8759 0 0 1.8759 500.0059 500.0059)" id="491622">
<g style="" vector-effect="non-scaling-stroke">
		<g transform="matrix(0.3244 -0.9459 0.9459 0.3244 -178.2294 -64.4358)" id="XMLID_60_">
<rect style="stroke: none; stroke-width: 1; stroke-dasharray: none; stroke-linecap: butt; stroke-dashoffset: 0; stroke-linejoin: miter; stroke-miterlimit: 4; is-custom-font: none; font-file-url: none; fill: rgb(173,174,176); fill-rule: nonzero; opacity: 1;" x="-81.097" y="-33.149" rx="0" ry="0" width="162.194" height="66.298"/>
</g>
		<g transform="matrix(1 0 0 1 -76.7563 -64.4498)" id="Layer_1">
<path style="stroke: none; stroke-width: 1; stroke-dasharray: none; stroke-linecap: butt; stroke-dashoffset: 0; stroke-linejoin: miter; stroke-miterlimit: 4; is-custom-font: none; font-file-url: none; fill: rgb(0,0,0); fill-rule: nonzero; opacity: 1;" transform=" translate(-168.2486, -180.5553)" d="M 169.994 106.097 l -6.1 3 c -7.6 3.7 -16.5 4.2 -24.4 1.4 l -10.2 -3.6 c -0.6 -0.4 -1.2 -0.7 -1.8 -0.9 l -62.8 -21.5 c -4.7 -1.6 -9.9 0.9 -11.5 5.6 l -52.7 153.5 c -0.8 2.3 -0.6 4.8 0.4 6.9 s 2.9 3.8 5.2 4.6 l 62.7 21.5 c 1 0.3 2 0.5 2.9 0.5 c 3.8 0 7.3 -2.4 8.6 -6.1 l 49.7 -144.6 l 3.4 1.2 c 12.5 4.4 26.5 3.6 38.5 -2.2 l 6.1 -3 c 7.5 -3.7 16.3 -4.2 24.2 -1.5 l 115.3 39.7 c -1.2 4.8 -3.6 10.5 -8 13.6 c -4.9 3.4 -12.2 3.4 -21.8 0.1 l -51.4 -17.6 c -2.4 -0.8 -5 -0.6 -7.2 0.6 c -2.2 1.2 -3.8 3.3 -4.5 5.7 c -0.1 0.3 -7.2 26.9 -29.9 39.1 c -14.3 7.7 -32.1 8 -53 0.9 c -4.7 -1.6 -9.9 0.9 -11.5 5.6 c -1.6 4.7 0.9 9.9 5.6 11.5 c 12 4.1 23.3 6.2 33.8 6.2 c 12.2 0 23.4 -2.7 33.6 -8.2 c 20.3 -10.9 30.8 -30 35.6 -41.4 l 42.9 14.7 c 15.3 5.3 28.1 4.5 38 -2.4 c 15.9 -11 16.7 -33.3 16.8 -34.3 c 0.1 -4 -2.4 -7.5 -6.1 -8.8 l -122.4 -42.2 C 195.694 99.497 181.794 100.397 169.994 106.097 z M 66.194 256.497 l -45.6 -15.6 l 46.7 -136.3 l 45.6 15.6 L 66.194 256.497 z" stroke-linecap="round"/>
</g>
		<g transform="matrix(-0.4395 -0.8982 0.8982 -0.4395 170.4005 -63.4671)" id="XMLID_142_">
<rect style="stroke: none; stroke-width: 1; stroke-dasharray: none; stroke-linecap: butt; stroke-dashoffset: 0; stroke-linejoin: miter; stroke-miterlimit: 4; is-custom-font: none; font-file-url: none; fill: rgb(60,146,202); fill-rule: nonzero; opacity: 1;" x="-81.094" y="-33.147" rx="0" ry="0" width="162.188" height="66.294"/>
</g>
		<g transform="matrix(1 0 0 1 47.9798 0.4952)" id="Layer_1">
<path style="stroke: none; stroke-width: 1; stroke-dasharray: none; stroke-linecap: butt; stroke-dashoffset: 0; stroke-linejoin: miter; stroke-miterlimit: 4; is-custom-font: none; font-file-url: none; fill: rgb(0,0,0); fill-rule: nonzero; opacity: 1;" transform=" translate(-292.9848, -245.5002)" d="M 410.194 266.797 l -21.5 19.8 c -19.5 17.9 -41.5 33 -65.3 44.6 l -114.1 55.8 c -5 2.5 -11.1 0.4 -13.6 -4.7 c -2.5 -5 -0.4 -11.1 4.7 -13.6 l 1.4 -0.7 l 0 0 l 62.4 -30.5 c 4.5 -2.2 6.4 -7.6 4.2 -12.1 c -2.2 -4.5 -7.6 -6.4 -12.1 -4.2 l -62.4 30.5 l 0 0 l -31.4 15.4 c -5 2.5 -11.1 0.4 -13.6 -4.7 c -1.2 -2.4 -1.4 -5.2 -0.5 -7.7 c 0.9 -2.6 2.7 -4.6 5.1 -5.8 l 23.7 -11.6 l 0 0 l 67.8 -33.2 c 4.5 -2.2 6.4 -7.6 4.2 -12.1 s -7.6 -6.4 -12.1 -4.2 l -67.9 33.3 l 0 0 l -2.6 1.3 l -32.4 15.9 c -2.4 1.2 -5.2 1.4 -7.7 0.5 c -2.6 -0.9 -4.6 -2.7 -5.8 -5.1 c -2.5 -5 -0.4 -11.1 4.7 -13.6 l 11.2 -5.5 l 0 0 l 22.9 -11.2 l 6.4 -3.1 l 0 0 l 52.6 -25.8 c 4.5 -2.2 6.4 -7.6 4.2 -12.1 s -7.6 -6.4 -12.1 -4.2 l -57 27.9 l -24.9 12.2 c -5 2.4 -11.1 0.4 -13.6 -4.7 c -1.2 -2.4 -1.4 -5.2 -0.5 -7.7 c 0.9 -2.6 2.7 -4.6 5.1 -5.8 l 43.5 -21.3 c 4.5 -2.2 6.4 -7.6 4.2 -12.1 s -7.6 -6.4 -12.1 -4.2 l -43.5 21.3 c -6.8 3.3 -11.9 9.1 -14.3 16.2 s -2 14.8 1.3 21.6 c 2.1 4.2 5.1 7.7 8.7 10.3 c -6.3 8.3 -7.9 19.7 -3 29.7 c 3.3 6.8 9.1 11.9 16.2 14.3 c 3 1 6 1.5 9 1.5 c -0.1 4.5 0.8 9 2.9 13.1 c 4.9 10 15 15.8 25.4 15.8 c 4.2 0 8.4 -0.9 12.4 -2.9 l 6.4 -3.1 c 0.3 3.4 1.2 6.7 2.7 9.9 c 4.9 10 15 15.8 25.4 15.8 c 4.2 0 8.4 -0.9 12.4 -2.9 l 114.1 -55.8 c 25.4 -12.4 48.8 -28.4 69.6 -47.5 l 25.5 -23.5 l 58.4 -28.6 c 4.5 -2.2 6.4 -7.6 4.2 -12.1 l -71.4 -145.5 c -1.1 -2.2 -2.9 -3.8 -5.2 -4.6 c -2.3 -0.8 -4.8 -0.6 -6.9 0.4 l -59.6 29.1 c -4.5 2.2 -6.4 7.6 -4.2 12.1 L 410.194 266.797 z M 405.394 106.197 l 63.3 129.5 l -43.3 21.2 l -63.3 -129.5 L 405.394 106.197 z" stroke-linecap="round"/>
</g>
</g>
</g>
</svg>