<svg xmlns="http://www.w3.org/2000/svg" shape-rendering="geometricPrecision" text-rendering="geometricPrecision" image-rendering="optimizeQuality" fill-rule="evenodd" clip-rule="evenodd" viewBox="0 0 512 425.29"><path d="M256 196c63.31 0 114.65 51.33 114.65 114.65 0 63.32-51.34 114.64-114.65 114.64-63.32 0-114.65-51.32-114.65-114.64S192.68 196 256 196zm103.79-71.3c-3.13 1.55-6.3 3.25-9.42 5.05-9.37 5.49-18.63 12.21-28.08 19.92l-20.17-23.09c6.96-6.45 14.5-12.33 22.5-17.53 6.37-4.17 13.04-7.88 19.92-11.05 2.75-1.38 5.5-2.67 8.33-3.87-13.29-23.55-32.42-40.42-54.09-50.83-43.06-20.62-96.68-16.14-134.61 13.32-21.79 16.88-38.33 42.13-44.71 75.59l-2 10.45-10.42 1.84c-10.21 1.79-19.32 4.25-27.33 7.37-7.75 3.01-14.66 6.72-20.7 11.09-4.84 3.5-9.01 7.42-12.54 11.66-10.97 13.13-16.05 29.58-15.93 46.26.13 16.9 5.63 33.99 15.8 48.03 3.79 5.21 8.16 10.01 13.16 14.17 5.09 4.2 10.79 7.7 17.21 10.34 6.37 2.62 13.42 4.49 21.21 5.58h11.34c-.31 3.84-.46 7.73-.46 11.64 0 6.45.41 12.8 1.22 19.02h-12.6l-1.92-.16c-11.12-1.42-21.21-4.05-30.37-7.83-9.46-3.93-17.84-8.97-25.21-15.13-7-5.84-13.12-12.46-18.33-19.67C7.67 267.71.17 244.29 0 220.95c-.16-23.58 7.17-47.03 23.01-66.04 5.12-6.16 11.15-11.83 18.07-16.83 8.05-5.83 17.25-10.75 27.68-14.78 7.16-2.8 14.82-5.14 22.91-7.01 9.17-36.41 28.71-64.45 53.83-83.92C192.57-4.1 258.61-9.92 312.04 15.75c29.2 14.05 54.7 37.42 71.25 70.29 6.66-1.04 13.33-1.58 19.95-1.5 69.26.52 109.46 59.53 108.75 124.04-.29 26.29-7.37 52.46-21.88 71.71-9.45 12.54-21.58 22.79-36.12 30.91-13.99 7.84-30.33 13.8-48.66 18.05l-3.34.4a148.914 148.914 0 0 0 .7-31.27c13.69-3.49 25.85-8.07 36.26-13.88 10.96-6.13 19.92-13.59 26.62-22.54 10.42-13.88 15.55-33.5 15.75-53.63.57-47.22-26.49-92.88-78.29-93.2-14.29-.13-29.16 3.33-43.24 9.57zm-56.22 178.56c3.65.15 6.24 1.36 7.73 3.64 4.06 6.08-1.47 12.09-5.32 16.33-10.91 11.96-37.64 40.73-43.02 47.06-4.07 4.51-9.89 4.51-13.96 0-5.56-6.49-33.63-36.57-44-48.21-3.6-4.05-8.05-9.57-4.3-15.18 1.53-2.28 4.09-3.49 7.74-3.64h22.14v-32.17c0-5.84 4.78-10.64 10.64-10.64h29.56c5.85 0 10.65 4.79 10.65 10.64v32.17h22.14z"/></svg>