<svg width="11" height="11" viewBox="0 0 11 11" fill="none" xmlns="http://www.w3.org/2000/svg">
<g clip-path="url(#clip0_75_1059)">
<path d="M8.86875 4.60159C8.7148 3.82137 8.29474 3.11881 7.68032 2.61391C7.06591 2.109 6.29526 1.83307 5.5 1.83325C4.17542 1.83325 3.025 2.58492 2.45208 3.68492C1.77844 3.75772 1.15546 4.07689 0.702849 4.58111C0.250237 5.08533 -7.86967e-05 5.73902 1.85592e-08 6.41658C1.85592e-08 7.93367 1.23292 9.16658 2.75 9.16658H8.70833C9.97333 9.16658 11 8.13992 11 6.87492C11 5.66492 10.0604 4.68409 8.86875 4.60159ZM8.70833 8.24992H2.75C1.73708 8.24992 0.916667 7.4295 0.916667 6.41658C0.916667 5.477 1.61792 4.69325 2.54833 4.597L3.03875 4.54659L3.26792 4.11117C3.47869 3.70086 3.79861 3.35667 4.19243 3.11649C4.58626 2.87631 5.03872 2.74947 5.5 2.74992C6.70083 2.74992 7.73667 3.60242 7.97042 4.78034L8.10792 5.46784L8.80917 5.51825C9.15371 5.54142 9.47669 5.69425 9.7131 5.94596C9.94951 6.19768 10.0818 6.5296 10.0833 6.87492C10.0833 7.63117 9.46458 8.24992 8.70833 8.24992ZM6.16458 4.58325H4.83542V5.95825H3.66667L5.5 7.79158L7.33333 5.95825H6.16458V4.58325Z" fill="black" fill-opacity="0.7"/>
</g>
<defs>
<clipPath id="clip0_75_1059">
<rect width="11" height="11" fill="white"/>
</clipPath>
</defs>
</svg>
