<svg id="Layer_1" data-name="Layer 1" xmlns="http://www.w3.org/2000/svg" viewBox="0 0 808 632"><defs><style>.cls-1{fill:#1c4693;}.cls-2{fill:#020202;}.cls-3{fill:#ea312d;}.cls-4{fill:#272527;}.cls-5{fill:#262426;}.cls-6{fill:#252325;}.cls-7{fill:#1e4894;}.cls-8{fill:#232123;}.cls-9{fill:#b7c4dc;}</style></defs><path class="cls-1" d="M175.84,442.9H114.19c-2.66,0-2.27.17-2.27-2.34q0-32.47,0-64.93c0-2.22,0-2.22-2.29-2.22-3.33,0-6.65.09-10,0-1.67-.06-2,.53-2,2.09q.07,32.63,0,65.26c0,2.18,0,2.18-2.13,2.18-9.58,0-19.16,0-28.74,0-1.29,0-1.66-.33-1.66-1.65q.06-56.29,0-112.58c0-1.24.29-1.57,1.55-1.57q38.46.06,76.93,0c1.55,0,1.65.64,1.65,1.87,0,21.86,0,43.73-.06,65.59,0,1.7.43,2.1,2.11,2.1q30.33-.1,60.65,0c1.58,0,2.12-.25,2.11-2-.07-21.81,0-43.62-.09-65.43,0-1.79.53-2.11,2.18-2.1,8.59.09,17.17.07,25.76,0,1.3,0,1.79.2,1.78,1.67q-.06,56.2,0,112.42c0,1.39-.39,1.71-1.76,1.71Q206.92,442.87,175.84,442.9Z"/><path class="cls-1" d="M269.91,343.42q0-48.9,0-97.8c0-1.47.31-1.93,1.86-1.91q13.54.12,27.09,0c1.68,0,2,.53,2,2.06q0,74.06,0,148.11a7.48,7.48,0,0,1,0,1.16c-.17,1.23.29,1.64,1.56,1.62,4-.08,8.09,0,12.13,0,16.45,0,32.9,0,49.35,0,1.49,0,1.82-.42,1.81-1.85q-.06-32.22,0-64.43c0-2.29,0-2.29,2.21-2.29,8.25,0,16.5,0,24.75,0,1.32,0,1.81.26,1.8,1.71q-.06,55.78,0,111.58c0,1.22-.29,1.59-1.56,1.59q-60.56-.06-121.12,0c-1.53,0-1.77-.5-1.76-1.88Q269.93,392.24,269.91,343.42Z"/><path class="cls-2" d="M11.89,343.35a9.56,9.56,0,0,1,3.21-7.3Q42,310.16,68.87,284.29q21.66-20.88,43.28-41.79t43.51-41.9c3.61-3.48,7.3-6.89,10.82-10.46,3.79-3.85,10-3.69,14-.31,7,6,14.44,11.63,21.69,17.42,8.47,6.76,17,13.5,25.39,20.31,1.2,1,1.9,1,3.05-.1q20.64-20,41.36-39.91,23-22.22,46.06-44.41c1.79-1.73,3.48-3.57,5.44-5.12,3.57-2.84,9.05-2.27,12.4.63,5.15,4.44,10.63,8.49,16,12.7q15.1,11.88,30.21,23.73,17.89,14,35.82,27.93,20,15.6,39.92,31.23c3.53,2.77,5.21,6.24,4,10.82-1.72,6.45-9.51,9.33-14.81,5.26-9.12-7-18.14-14.13-27.19-21.2q-18.3-14.3-36.58-28.59-23-18-46.06-36.08c-2.14-1.68-4.32-3.31-6.41-5-.72-.6-1.09-.55-1.73.08-4.83,4.7-9.69,9.36-14.55,14q-12.51,12-25,24L251,234.62c-1.72,1.66-3.48,3.27-5.21,4.92-1.45,1.38-1.44,1.38.11,2.61,3.59,2.86,7.22,5.66,10.74,8.59,2.17,1.81,4.72,3.19,6.41,5.53a9.68,9.68,0,0,1-13.88,13.25q-16.84-13.47-33.66-27l-36.17-29c-1.23-1-2.55-1.89-3.69-3-.89-.86-1.35-.6-2.13.16-7.68,7.42-15.41,14.77-23.1,22.17Q134,248.65,117.56,264.49q-17.69,17-35.38,34.09Q55.31,324.4,28.42,350.2a9.68,9.68,0,0,1-16.53-6.85Z"/><path class="cls-1" d="M424.46,365q0-37.86,0-75.7c0-1.75.49-2.05,2.1-2,8.86.08,17.72.06,26.58,0,1.19,0,1.59.22,1.59,1.52q-.06,76.27,0,152.56c0,1.28-.38,1.55-1.59,1.54q-13.55-.07-27.08,0c-1.41,0-1.58-.51-1.58-1.72Q424.49,403.09,424.46,365Z"/><path class="cls-3" d="M517.68,317.33c0,18.65,0,37.3,0,55.95,0,1.49-.4,1.85-1.85,1.82-4.48-.1-9-.09-13.45,0-1.33,0-1.68-.37-1.67-1.67.05-12.68,0-25.35.06-38,0-1.57-.39-2.14-2-2.1-3.38.08-6.76,0-10.13-.14-1.72-.1-2,.57-2,2.08.06,7.85,0,15.71,0,23.57,0,4.87,0,9.74,0,14.61,0,1.15-.19,1.69-1.52,1.67-4.71-.08-9.42-.07-14.13,0-1.15,0-1.36-.41-1.36-1.44q0-56.2,0-112.4c0-1.11.33-1.41,1.4-1.41q22.59,0,45.19,0c1.43,0,1.44.66,1.44,1.71Q517.67,289.44,517.68,317.33Zm-31-20.94h0c0,6.08,0,12.17,0,18.25,0,1,.12,1.7,1.42,1.68,3.76-.06,7.53-.05,11.29,0,1.12,0,1.41-.48,1.41-1.51q0-18.35,0-36.68c0-1.09-.37-1.45-1.45-1.44-3.65.05-7.31.08-11,0-1.39,0-1.8.4-1.78,1.78C486.68,284.44,486.65,290.41,486.65,296.39Z"/><path class="cls-3" d="M592.55,317.5c0-18.6,0-37.19,0-55.79,0-1.56.46-1.89,1.94-1.88q22.09.07,44.19,0c1.35,0,1.87.18,1.87,1.75q-.09,55.88,0,111.73c0,1.54-.47,1.8-1.85,1.77-4.43-.08-8.87-.09-13.29,0-1.46,0-1.88-.37-1.87-1.84.06-12.56,0-25.13.07-37.69,0-1.71-.51-2.17-2.17-2.14-3.21.05-6.42-.14-9.63-.21-2.42,0-2.42,0-2.42,2.47,0,12.51,0,25,0,37.52,0,1.56-.43,1.93-1.92,1.89-4.43-.09-8.86-.08-13.29,0-1.31,0-1.65-.34-1.65-1.65Q592.6,345.47,592.55,317.5Zm31.11-20.95c0-6,0-11.94,0-17.91,0-1.56-.49-2-2-2-3.59.1-7.19.06-10.79,0-1.07,0-1.6.22-1.58,1.46.12,12.21-.24,24.44.37,36.65.06,1.12.39,1.54,1.56,1.52,3.48-.07,7-.09,10.46,0,1.55,0,2-.52,2-2C623.62,308.39,623.66,302.47,623.66,296.55Z"/><path class="cls-3" d="M714.82,317c0-18.54,0-37.08-.05-55.62,0-1.76.51-2,2.11-2q22.1.09,44.19,0c1.41,0,1.71.39,1.71,1.74q-.06,55.88,0,111.74c0,1.49-.38,1.85-1.83,1.82q-6.72-.15-13.46,0c-1.42,0-1.75-.44-1.74-1.79q.06-19,0-38c0-2.25,0-2.26-2.26-2.27-3.38,0-6.76,0-10.13-.08-1.41-.05-1.77.42-1.77,1.78,0,12.84,0,25.68.06,38.52,0,1.42-.29,1.91-1.81,1.87-4.43-.11-8.86-.12-13.29,0-1.55,0-1.79-.48-1.78-1.87Q714.85,344.87,714.82,317ZM745.91,296V278.29c0-2.14,0-2.18-2.09-2.18-3.48,0-7,0-10.45,0-1.26,0-1.77.32-1.76,1.68.09,12.16-.17,24.32.39,36.47.06,1.27.5,1.57,1.69,1.55,3.43-.07,6.86-.11,10.29,0,1.61.06,2-.57,1.95-2C745.88,307.87,745.91,302,745.91,296Z"/><path class="cls-3" d="M677.39,259.86c7.48,0,15,0,22.43,0,1.11,0,1.52.22,1.52,1.44q-.08,16.44,0,32.88c0,1.23-.45,1.45-1.55,1.44-4.59-.05-9.19-.07-13.79,0-1.27,0-1.62-.43-1.61-1.63.05-5.1,0-10.19.05-15.28,0-1.5-.39-2.05-2-2-3.54.11-7.09.07-10.63,0-1.17,0-1.56.43-1.56,1.56q0,9,0,18.1a2,2,0,0,0,1.14,1.83L691,311.51q4.68,3.18,9.38,6.33a2,2,0,0,1,1,1.9q0,27,0,54c0,1.1-.32,1.37-1.39,1.37q-22.61,0-45.2,0c-1.12,0-1.36-.36-1.36-1.4q0-22.1,0-44.17c0-1.06,0-1.57,1.28-.79,4.79,2.87,9.64,5.63,14.52,8.35a2.21,2.21,0,0,1,1.11,2.31q0,8.39,0,16.77c0,2.12,0,2.12,2.15,2.12,3.44,0,6.87,0,10.3,0,1.25,0,1.68-.46,1.67-1.64q0-12,0-23.92a2.08,2.08,0,0,0-1-1.89c-9.51-6.44-19-12.91-28.54-19.33a2.83,2.83,0,0,1-1.47-2.65q.07-23.67,0-47.33c0-1.41.4-1.72,1.75-1.71C662.55,259.9,670,259.86,677.39,259.86Z"/><path class="cls-3" d="M531.12,327.94c5.51,3.2,10.63,6.24,15.81,9.16a2.18,2.18,0,0,1,1.13,2.3c0,5.59.05,11.18,0,16.77,0,1.67.48,2.21,2.17,2.14,3.43-.13,6.87-.08,10.31,0,1.28,0,1.76-.4,1.75-1.72q-.06-11.86,0-23.74a2.15,2.15,0,0,0-1.14-2l-28.7-19.42a2.55,2.55,0,0,1-1.34-2.4q.07-23.75,0-47.49c0-1.41.39-1.71,1.75-1.71q22.17.07,44.36,0c1.38,0,1.89.23,1.88,1.78q-.12,16.11,0,32.21c0,1.34-.29,1.82-1.72,1.79-4.54-.1-9.08-.07-13.62,0-1.18,0-1.51-.37-1.5-1.52,0-5.15,0-10.3,0-15.45,0-1.42-.4-2-1.88-1.93-3.55.08-7.09.06-10.64,0-1.2,0-1.71.34-1.71,1.58q0,9,0,18.1a2,2,0,0,0,1,1.77q14.28,9.68,28.56,19.34a2.84,2.84,0,0,1,1.5,2.65q-.08,26.57,0,53.14c0,1.45-.34,1.82-1.81,1.82q-22.18-.09-44.37,0c-1.47,0-1.81-.37-1.8-1.82.06-14.45,0-28.89,0-43.34Z"/><path class="cls-4" d="M492,417.83c-1,4.93-1.87,9.46-2.78,14-.75,3.78-1.53,7.55-2.26,11.33-.12.63-.39.86-1,.85h-.33c-4.7.22-4.83-.05-5.7-5.25s-2-10.49-3.09-15.72a22.51,22.51,0,0,0-1-4.7c-.59.69-.37,1.37-.37,2,0,7.36,0,14.72,0,22.08,0,1.19-.28,1.64-1.56,1.64-4.08,0-4.08.05-4.08-4.07,0-10.13,0-20.25,0-30.37,0-1.29.3-1.79,1.66-1.72,2,.1,4.09.06,6.14,0,.89,0,1.18.27,1.36,1.17,1.43,7.13,2.93,14.24,4.44,21.36a2.73,2.73,0,0,0,.71,1.76c1-4.71,1.91-9.31,2.85-13.91.62-3,1.24-5.93,1.85-8.9.21-1,.6-1.6,1.87-1.51,2,.15,4.09.08,6.14,0,.93,0,1.25.3,1.25,1.24q0,16.85,0,33.69c0,.83-.23,1.15-1.12,1.21-4.51.29-4.51.32-4.51-4.13q0-9.87,0-19.75A3.78,3.78,0,0,0,492,417.83Z"/><path class="cls-4" d="M673.53,417.93c-1,4.95-1.93,9.64-2.88,14.33q-1.11,5.5-2.23,11a.79.79,0,0,1-.91.73h-2.33c-2.75,0-2.66,0-3.15-2.66-1-5.19-2.07-10.37-3.09-15.56-.47-2.4-.91-4.8-1.39-7.41-.85.68-.62,1.38-.62,2,0,7.31,0,14.62,0,21.92,0,1.37-.34,1.8-1.75,1.78-3.82-.08-3.83,0-3.83-3.82,0-10.19,0-20.37,0-30.56,0-1.33.3-1.88,1.74-1.8,2,.12,4.1.06,6.15,0,.82,0,1,.25,1.22,1.09,1.31,6.42,2.71,12.83,4.07,19.24.27,1.28.22,2.63,1.05,4,1-4.62,1.91-9,2.83-13.48.64-3.07,1.27-6.15,1.87-9.24.23-1.18.72-1.75,2.08-1.64a51.19,51.19,0,0,0,5.81,0c1,0,1.37.22,1.36,1.28q0,16.77,0,33.54c0,1-.33,1.3-1.33,1.32-4.17.09-4.17.12-4.17-4q0-10,0-19.93A3,3,0,0,0,673.53,417.93Z"/><path class="cls-5" d="M729.92,431.27V415.54c0-2.05.06-4.09,0-6.14,0-1.1.22-1.53,1.43-1.54,4.28,0,4.28-.07,4.28,4.21,0,10.07,0,20.14,0,30.2,0,1.41-.46,1.63-1.78,1.79-3,.37-4.81-.52-6.13-3.53-2.86-6.49-6.2-12.77-9.38-19.18-.66.62-.42,1.33-.42,1.95,0,6.36,0,12.72,0,19.08,0,1.35-.41,1.67-1.68,1.65-3.8,0-3.8,0-3.8-3.77,0-10.18,0-20.35,0-30.53,0-1.36.17-1.93,1.76-1.88,4.18.12,4.13.06,5.91,3.76,2.76,5.77,5.58,11.5,8.41,17.23A6,6,0,0,0,729.92,431.27Z"/><path class="cls-5" d="M551.12,431.43v-7.06c0-5,0-10,0-14.94,0-1.28.39-1.57,1.59-1.56,4.06,0,4.06,0,4.06,4.1,0,10.07,0,20.14,0,30.21,0,1.48-.43,1.79-1.87,1.88-2.73.16-4.49-.26-5.79-3.26-2.78-6.47-6.2-12.67-9.37-19a2.78,2.78,0,0,0-.29-.39c-.59.51-.34,1.16-.34,1.71,0,6.37-.05,12.73,0,19.1,0,1.31-.23,1.83-1.69,1.8-3.76-.09-3.76,0-3.76-3.83,0-10.23,0-20.47,0-30.71,0-1.33.37-1.66,1.66-1.64,4.18.06,4.15,0,6,3.88,3.06,6.36,6.18,12.69,9.27,19C550.62,430.86,550.7,430.93,551.12,431.43Z"/><path class="cls-6" d="M618.43,431.93c0,1.94,0,3.87,0,5.81A2.74,2.74,0,0,1,617.4,440c-5.15,4.68-13.37,6.07-18.87,2.43a15.8,15.8,0,0,1-6.57-10,27.37,27.37,0,0,1,0-13.31c2.67-10.35,10.75-14,19.76-10.49,3.55,1.38,5.19,4.71,6.08,8.31.18.75,0,1.28-.86,1.4-.43.07-.85.23-1.29.31a14.15,14.15,0,0,1-2.93.45c-1.42-.07-.82-1.58-1.34-2.35-1.48-2.25-3.36-3.62-6.08-3.46a7.23,7.23,0,0,0-6.43,4.17c-1.77,3.65-1.86,7.57-1.36,11.51a14.37,14.37,0,0,0,2,6.23c3.17,4.85,9,4.05,12.57.51.41-.42.64-4.58.33-5s-.72-.24-1.09-.24c-1.49,0-3,0-4.48,0-.77,0-1.11-.21-1.07-1,.05-1.32,0-2.65,0-4,0-.73.3-1,1-.95,3.55,0,7.09,0,10.64,0,.82,0,1,.34,1,1.09C618.41,427.72,618.43,429.83,618.43,431.93Z"/><path class="cls-7" d="M185.89,301c0-3.15,0-6.31,0-9.45,0-1.1.21-1.57,1.44-1.56q9.7.09,19.42,0c1.06,0,1.28.37,1.28,1.35q-.06,9.78,0,19.56c0,1-.34,1.31-1.33,1.3q-9.72-.06-19.42,0c-1.08,0-1.41-.33-1.39-1.42C185.94,307.48,185.89,304.22,185.89,301Z"/><path class="cls-8" d="M630.2,422.41c4.32,0,8.64.07,12.95,0,1.19,0,1.48.37,1.48,1.51,0,3.86,0,3.86-3.76,3.86-3.21,0-6.43,0-9.64,0-1,0-1.35.27-1.32,1.3q.11,3.81,0,7.64c0,1.09.31,1.38,1.39,1.37,4.48-.06,9,0,13.45,0,1.11,0,1.54.24,1.54,1.45,0,4.51.05,4.51-4.51,4.51-5.43,0-10.85,0-16.28,0-1.17,0-1.49-.34-1.49-1.49q.06-16.61,0-33.21c0-1.22.45-1.45,1.54-1.44,6.21,0,12.41.05,18.61,0,1.26,0,1.67.36,1.56,1.6s.42,3.18-.27,4-2.7.31-4.11.33c-3.71.06-7.42,0-11.13.06-.46,0-.55.28-.55.63v7.28C629.65,422.13,629.74,422.44,630.2,422.41Z"/><path class="cls-8" d="M691.68,422.42c4.26,0,8.52.06,12.78,0,1.14,0,1.52.27,1.51,1.46,0,3.91,0,3.91-3.86,3.91-3.16,0-6.32,0-9.47,0-.91,0-1.28.22-1.27,1.19.06,2.66.07,5.32,0,8,0,1,.42,1.15,1.28,1.14,4.48,0,9,0,13.45,0,1.17,0,1.49.32,1.49,1.48,0,4.48,0,4.48-4.49,4.48-5.37,0-10.74,0-16.11,0-1.12,0-1.52-.24-1.51-1.44q.06-16.6,0-33.2c0-1.12.25-1.52,1.45-1.51,6.26.06,12.52,0,18.77,0,1,0,1.54.23,1.44,1.38a20.32,20.32,0,0,0,0,3.31c.1,1.1-.4,1.28-1.35,1.27-4.7,0-9.41,0-14.11,0-.55-.06-.64.29-.64.72,0,2.37,0,4.75,0,7.12C691,422.13,691.13,422.48,691.68,422.42Z"/><path class="cls-1" d="M321.56,276.17c0-3.15,0-6.31,0-9.46,0-1,.15-1.46,1.34-1.45,6.42.07,12.84.06,19.26,0,1.13,0,1.51.28,1.5,1.47q-.07,9.63,0,19.25c0,1-.24,1.34-1.28,1.33q-9.8-.06-19.59,0c-1.13,0-1.24-.46-1.23-1.37C321.59,282.69,321.56,279.43,321.56,276.17Z"/><path class="cls-7" d="M159.5,301c0-3.21.05-6.42,0-9.62,0-1.13.37-1.38,1.42-1.37q9.56.06,19.11,0c1.17,0,1.49.34,1.48,1.5q-.07,9.63,0,19.26c0,1.23-.43,1.46-1.54,1.45-6.37,0-12.73-.05-19.1,0-1.13,0-1.39-.36-1.37-1.42C159.54,307.49,159.5,304.22,159.5,301Z"/><path class="cls-6" d="M526.76,444c-3.22,0-3.22,0-4.2-3.53-.39-1.37-.79-2.74-1.14-4.12a1.15,1.15,0,0,0-1.31-1q-4.82,0-9.63,0c-.72,0-.87.3-1,.93-.59,2.17-1.33,4.31-1.9,6.49-.25.94-.68,1.28-1.62,1.21-1.59-.12-3.83.66-4.61-.29s.62-2.87,1.09-4.36q4.11-13.2,8.2-26.41c.39-1.26.87-2.49,1.18-3.77a1.46,1.46,0,0,1,1.87-1.3,13.14,13.14,0,0,0,1.66,0c3.36,0,3.42,0,4.35,3.11,2.19,7.31,4.62,14.54,7,21.79,1.07,3.34,2.11,6.69,3.24,10,.27.78.29,1.28-.77,1.21C528.32,444,527.54,444,526.76,444Zm-15.33-14.56c1.46,0,2.78,0,4.1,0s2.74.54,3.45-.29c.51-.59-.36-2-.75-3-.05-.15,0-.34-.07-.49-1-2.9-1.57-5.94-2.94-9.07Z"/><path class="cls-6" d="M585.53,444c-3,0-3,0-4-3-.47-1.52-1-3-1.4-4.56a1.22,1.22,0,0,0-1.41-1c-3.15,0-6.3,0-9.46,0-.66,0-.91.19-1.09.86-.6,2.23-1.37,4.4-2,6.63-.26,1-.76,1.18-1.65,1.14-1.21-.05-2.44-.06-3.65,0-1,.06-1.37-.13-1-1.27q3.36-10.25,6.6-20.52,2-6.36,3.82-12.76c.32-1.12.79-1.7,2-1.58a13.82,13.82,0,0,0,3.15,0c1.48-.22,2,.52,2.4,1.77,2.26,7.15,4.57,14.29,6.85,21.44,1.2,3.75,2.32,7.54,3.58,11.27.44,1.3.31,1.86-1.18,1.66A13.11,13.11,0,0,0,585.53,444Zm-15.4-14.57c2.47,0,4.73,0,7,0,.82,0,.88-.29.64-1-.56-1.66-1-3.38-1.54-5-.8-2.19-1.11-4.55-2.3-6.85Z"/><path class="cls-1" d="M370,276.27c0,3.21,0,6.42,0,9.62,0,1-.14,1.46-1.32,1.44-6.42-.06-12.85,0-19.27,0-1,0-1.45-.18-1.44-1.35q.09-9.62,0-19.25c0-1.23.44-1.45,1.53-1.45q9.56.06,19.1,0c1.06,0,1.43.26,1.41,1.37C370,269.85,370,273.06,370,276.27Z"/><path class="cls-7" d="M194.55,274.2c0,3.26,0,6.53,0,9.79,0,.93-.27,1.25-1.23,1.24q-9.63,0-19.27,0c-1,0-1.32-.35-1.31-1.35,0-6.47,0-12.95,0-19.42,0-1.13.38-1.4,1.43-1.39q9.56.06,19.11,0c1.05,0,1.3.36,1.28,1.33C194.52,267.67,194.55,270.93,194.55,274.2Z"/><path class="cls-1" d="M335,238.45c7.21-.14,14.42-.16,21.63,0l0,21.9H335.05Z"/><path class="cls-8" d="M748.12,413.86c-2.27,0-4.53-.07-6.79,0-1,0-1.45-.18-1.47-1.33-.06-4.62-.1-4.62,4.49-4.62,5.64,0,11.27,0,16.91,0,1.21,0,1.86.2,1.69,1.59s.59,3.31-.32,4.13-2.63.21-4,.23l-3.81,0c-1.22.12-.67,1.08-.67,1.64-.06,9.48-.07,19-.09,28.45l-5.17,0c0-.66-.09-1.32-.09-2,0-8.88,0-17.75,0-26.62C748.75,414.87,749.31,413.93,748.12,413.86Z"/><path class="cls-4" d="M722.65,393.05c2.72,1.93,3.42,5,5.16,7.83H722c-.43,0-.61-.21-.82-.62-.8-1.61-1.77-3.14-2.56-4.76a6.41,6.41,0,0,0-1-1.31,1.38,1.38,0,0,0-1.52-.35c-.55.18-.29.76-.3,1.16,0,1.55-.06,3.1,0,4.64,0,.9-.18,1.33-1.17,1.28a24.38,24.38,0,0,0-3.31,0c-1.07.07-1.28-.41-1.28-1.37,0-5,0-10.06,0-15.09,0-1,.37-1.33,1.35-1.32,3.15,0,6.3,0,9.45,0,2.87,0,4.72,1.24,5.26,3.36.66,2.65-.27,4.73-2.77,6.18C723.18,392.81,723,392.89,722.65,393.05Zm-5.48-2.73c1-.06,1.5-.05,2-.14a1.62,1.62,0,0,0,1.52-1.81,1.42,1.42,0,0,0-1.52-1.53c-.54,0-1.09-.12-1.63-.17-1.08-.09-2-.07-1.79,1.49C715.93,389.33,715.45,390.84,717.17,390.32Z"/><path class="cls-6" d="M646.7,393.06c2.45,1.89,2.6,2.95,5,7.84-1.88,0-3.69,0-5.5,0-.93,0-1.05-.72-1.35-1.23-.9-1.57-1.71-3.19-2.57-4.78a1.84,1.84,0,0,0-1.37-1.08c-.76-.12-1.15,0-1.13.9,0,1.65,0,3.32,0,5,0,1-.29,1.2-1.22,1.23-4.3.13-4.3.16-4.3-4.1,0-4.09,0-8.19,0-12.28,0-1.09.29-1.43,1.39-1.41,2.87.07,5.75,0,8.63,0,3.3,0,5.33,1,5.78,3.07C650.79,389.41,650.08,391.44,646.7,393.06Zm-4.58-2.79a6.32,6.32,0,0,0,1.1-.09c.92-.18,1.59-.59,1.58-1.7a1.43,1.43,0,0,0-1.57-1.65c-.82,0-1.64-.12-2.46-.16a.86.86,0,0,0-.94.5C639.1,388.85,640,390.29,642.12,390.27Z"/><path class="cls-4" d="M652.82,392c0-5.58,3.72-9.47,9.25-9.28,6.72.24,9.31,3.54,9.37,9.26,0,5.45-2.57,9.25-9.29,9.27C656.32,401.23,652.82,397.75,652.82,392Zm13,.18c-.05-.72,0-1.45-.14-2.15a3.66,3.66,0,0,0-3.56-3.08,3.44,3.44,0,0,0-3.45,2.86,9.63,9.63,0,0,0,.06,4.74,3.48,3.48,0,0,0,4.49,2.44C665.58,396.14,665.83,394.22,665.84,392.15Z"/><path class="cls-4" d="M559.16,392c0-2.54,0-5.08,0-7.62,0-.94.28-1.27,1.21-1.26,4.21,0,8.41,0,12.61,0,1,0,1.22.36,1.2,1.27-.07,3.08.26,2.46-2.4,2.51-1.94,0-3.87.07-5.81,0-1.06,0-1.15.47-1.11,1.3s-.15,1.53,1.11,1.48c2.1-.08,4.21,0,6.31,0,1.61,0,1.19,1.08,1.22,1.94s.27,1.83-1.2,1.77c-2-.07-4,.08-6-.05-1.41-.08-1.49.6-1.48,1.69s0,1.9,1.53,1.82c2.15-.12,4.31,0,6.47-.05,1.15,0,1.68.32,1.52,1.5a2.09,2.09,0,0,0,0,.5c.29,1.66-.28,2.26-2.08,2.18-3.64-.16-7.29,0-10.94-.05-2.58,0-2.14.13-2.16-2.08S559.16,394.29,559.16,392Z"/><path class="cls-4" d="M471.38,392c0-2.48.05-5,0-7.46,0-1,.23-1.36,1.26-1.35q6.22.06,12.45,0c1,0,1.42.32,1.27,1.33a4.5,4.5,0,0,0,0,1.16c.14,1-.22,1.35-1.27,1.32-2.26-.08-4.54,0-6.8-.05-1.12,0-1.28.41-1.24,1.35s0,1.48,1.19,1.43c2-.08,4.09.05,6.13,0,1.55-.07,1.34.93,1.33,1.86s.31,1.94-1.28,1.87c-1.93-.1-3.87.08-5.8-.06-1.48-.1-1.55.63-1.59,1.78s.28,1.8,1.65,1.73c2.1-.11,4.21,0,6.31-.05,1.21,0,1.77.33,1.63,1.59a6.75,6.75,0,0,0,0,1.49c.06.77-.21,1.07-1,1.06q-6.56,0-13.11,0c-.87,0-1.12-.31-1.11-1.16C471.42,397.15,471.38,394.55,471.38,392Z"/><path class="cls-6" d="M692.24,391.93c0-2.54,0-5.09,0-7.63,0-.87.27-1.16,1.13-1.16,4.21,0,8.41.05,12.62,0,1.09,0,1.27.43,1.23,1.38-.1,2.83.38,2.36-2.33,2.4-1.88,0-3.77,0-5.65,0-1,0-1.48.12-1.47,1.32s.42,1.5,1.54,1.45c1.93-.07,3.87,0,5.81,0,1,0,1.34.28,1.36,1.3,0,2.4.08,2.4-2.37,2.4-1.6,0-3.21.08-4.81,0-1.36-.09-1.52.56-1.52,1.68s.14,1.89,1.58,1.82c2.1-.1,4.21.05,6.31-.05,1.3-.06,1.87.33,1.68,1.67a4.1,4.1,0,0,0,0,1.16c.13,1-.16,1.34-1.24,1.33-4.15-.07-8.3-.08-12.45,0-1.24,0-1.46-.44-1.42-1.53C692.29,396.91,692.24,394.42,692.24,391.93Z"/><path class="cls-4" d="M594.22,382.62a13.53,13.53,0,0,1,1.86.22c1.76.44,3.43,1.1,3.87,3.11s-.6,3.47-2.16,4.63c-.51.37-1.61.78-.59,1.5.6.43,1.11,2.35,2.42.64.69-.89,1.5,0,2.26,0,1.8,0,1.89,1,1.18,2.18s-.24,2,.86,2.54.92,1,.19,1.82c-1.63,1.78-1.58,1.82-3.74.72a2,2,0,0,0-1.91,0,12.18,12.18,0,0,1-8,1c-2.56-.47-4.21-1.83-4.57-3.84-.43-2.38.44-4.12,2.92-5.49.89-.49,1.1-.77.54-1.76-2-3.51-.65-6.19,3.28-7C593.16,382.72,593.72,382.69,594.22,382.62Zm2,14.25c-1-.9-2-1.78-3-2.69s-1.65-.49-2.12.37a2,2,0,0,0,.65,3C593.15,398.46,594.3,398.31,596.18,396.87Zm0-10.07a1.72,1.72,0,0,0-1.79-1.4,1.51,1.51,0,0,0-1.58,1.56c.06.88.5,1.93,1.46,1.87S595.9,387.82,596.2,386.8Z"/><path class="cls-4" d="M491.22,394.88c1.29-.35,2.4-.34,3,1.54.38,1.25,2.7,1.6,4,.93a1.52,1.52,0,0,0,.2-2.77c-1.09-.87-2.5-.78-3.72-1.25-.92-.36-1.88-.59-2.78-1a4.74,4.74,0,0,1-.36-8.48c2.69-1.42,7.22-1.83,10.42.35a5.68,5.68,0,0,1,1.95,3.1c.24.65-.22.76-.68.81l-3.61.42c-.84.1-1-.65-1.22-1.12-.68-1.25-1.76-1.33-3-1.16a1.19,1.19,0,0,0-1.15,1.19,1.23,1.23,0,0,0,1.1,1.22c1.86.47,3.72,1,5.54,1.61a5.09,5.09,0,0,1,3.73,5,6.27,6.27,0,0,1-4.63,5.56,16,16,0,0,1-7.21,0,5.7,5.7,0,0,1-4.12-4.07c-.43-1.24-.14-2,1.4-1.86A10.85,10.85,0,0,0,491.22,394.88Z"/><path class="cls-5" d="M541.38,400.9c-1.8,0-3.4,0-5,0-.72,0-.9-.3-1-1-.22-1.43-1-2.26-2.58-1.94a5.3,5.3,0,0,1-1.82,0c-1.82-.32-2.94.28-3.16,2.2-.07.61-.48.67-1,.67H522c1.54-4.11,3-8,4.49-11.95.61-1.63,1.36-3.22,1.87-4.89a1.07,1.07,0,0,1,1.29-.9.49.49,0,0,1,.17,0c1.72.42,3.91-1,5.17.8,1,1.45,1.37,3.33,2,5C538.41,392.87,539.85,396.77,541.38,400.9ZM531.75,394c.34-.5,1.88.87,1.53-.88a42.57,42.57,0,0,0-1.22-4.09.53.53,0,0,0-.6-.44c-.29,0-.28.3-.29.51a13.56,13.56,0,0,1-.9,3C529.71,394,529.69,394,531.75,394Z"/><path class="cls-4" d="M616.26,392c0-2.43,0-4.87,0-7.3,0-1.11.2-1.56,1.43-1.52,2.93.08,5.87,0,8.8,0s4.89,1.94,5.16,5.09a5.34,5.34,0,0,1-4.3,5.76,15.46,15.46,0,0,1-4.12.36c-.91-.05-1.3.27-1.26,1.22,0,1.38,0,2.77,0,4.15,0,.84-.26,1.13-1.13,1.18-4.57.26-4.57.28-4.57-4.32Zm7-1.27c2,0,3-.74,3-2s-1.21-2-3.23-2c-1.61,0-1.05,1.23-1.1,2.05C621.81,389.74,621.54,391,623.21,390.68Z"/><path class="cls-5" d="M674,392c0-2.49,0-5,0-7.47,0-1.06.24-1.46,1.37-1.44,2.93.07,5.87,0,8.8,0s4.73,1.75,5,4.79c.31,3.31-1.42,5.59-4.2,6.06a18.46,18.46,0,0,1-4.12.35c-1-.07-1.35.35-1.3,1.34.06,1.38,0,2.77,0,4.15,0,.81-.31,1-1.07,1.06-4.5.29-4.5.31-4.5-4.23Zm5.52-3.59c0,1.24-.35,2.42,1.5,2.26s2.9-.77,2.86-2-1.18-1.94-3.2-2C679,386.62,679.59,387.82,679.48,388.45Z"/><path class="cls-6" d="M514.84,383.16c2.32,0,4.64,0,7,0,.94,0,1.41.14,1.38,1.25-.12,3.83.43,3-3,3.1-2.6,0-2.6,0-2.6,2.64,0,3.09-.05,6.19,0,9.28,0,1.11-.22,1.52-1.43,1.52-4.14,0-4.14,0-4.14-4.09,0-2.71,0-5.42,0-8.12,0-1-.3-1.31-1.23-1.24-.71.06-1.44,0-2.15,0-2.73,0-2.23.37-2.4-2.37-.1-1.58.31-2.12,2-2C510.41,383.28,512.63,383.16,514.84,383.16Z"/><path class="cls-6" d="M548.66,383.16c2.39,0,4.77,0,7.15,0,.85,0,1.28.12,1.3,1.16.06,3.2.11,3.19-3.08,3.19-2.49,0-2.49,0-2.49,2.57,0,3.16,0,6.31,0,9.47,0,1.11-.35,1.38-1.41,1.39-4.23,0-4.23.08-4.23-4.19,0-2.55-.08-5.1,0-7.64.07-1.37-.43-1.76-1.69-1.61a13.12,13.12,0,0,1-1.66,0c-2.35,0-2.24,0-2.39-2.38-.1-1.6.34-2.11,2-2C544.33,383.28,546.5,383.16,548.66,383.16Z"/><path class="cls-6" d="M764.91,383.16c-2,2.94-3.73,5.63-5.59,8.23a6,6,0,0,0-1.39,4.43,8.16,8.16,0,0,1,0,1c0,4.14,0,4.11-4.09,4.11-1.05,0-1.55-.23-1.37-1.35A13.46,13.46,0,0,0,749,388.24a53.92,53.92,0,0,1-3.42-5.08h5.49c.77,0,1,.58,1.32,1.09.75,1.26,1.47,2.55,2.21,3.82.42.72.75.86,1.24,0,.78-1.42,1.74-2.76,2.53-4.18a1.19,1.19,0,0,1,1.17-.71C761.19,383.15,762.84,383.16,764.91,383.16Z"/><path class="cls-6" d="M736.74,383.16c2.32,0,4.65,0,7,0,.94,0,1.37.15,1.39,1.24,0,3.12.09,3.11-3,3.11-2.62,0-2.62,0-2.62,2.59,0,3.2,0,6.41,0,9.61,0,.94-.28,1.2-1.21,1.23-4.27.14-4.27.17-4.27-4.11,0-2.59,0-5.19,0-7.79,0-1.11-.26-1.68-1.47-1.53a11.8,11.8,0,0,1-1.33,0c-3.13,0-3.57-.56-3-3.69.14-.8.63-.63,1.08-.64C731.77,383.15,734.25,383.16,736.74,383.16Z"/><path class="cls-9" d="M335,238.45l0,21.92c-.86-.09-.64-.77-.64-1.27q0-9.68,0-19.35C334.41,239.25,334.18,238.59,335,238.45Z"/><path class="cls-9" d="M356.62,260.36l0-21.9c.85.11.62.79.62,1.29q0,9.67,0,19.36C357.27,259.61,357.49,260.29,356.62,260.36Z"/></svg>