<svg width="34" height="34" viewBox="0 0 34 34" fill="none" xmlns="http://www.w3.org/2000/svg">
<path d="M17 0.333374C21.5284 0.333374 22.0934 0.350041 23.87 0.433374C25.645 0.516707 26.8534 0.795041 27.9167 1.20837C29.0167 1.63171 29.9434 2.20504 30.87 3.13004C31.7175 3.9632 32.3733 4.97102 32.7917 6.08337C33.2034 7.14504 33.4834 8.35504 33.5667 10.13C33.645 11.9067 33.6667 12.4717 33.6667 17C33.6667 21.5284 33.65 22.0934 33.5667 23.87C33.4834 25.645 33.2034 26.8534 32.7917 27.9167C32.3745 29.0297 31.7186 30.0377 30.87 30.87C30.0366 31.7172 29.0289 32.373 27.9167 32.7917C26.855 33.2034 25.645 33.4834 23.87 33.5667C22.0934 33.645 21.5284 33.6667 17 33.6667C12.4717 33.6667 11.9067 33.65 10.13 33.5667C8.35504 33.4834 7.14671 33.2034 6.08337 32.7917C4.97058 32.3742 3.96259 31.7183 3.13004 30.87C2.28238 30.037 1.62659 29.0292 1.20837 27.9167C0.795041 26.855 0.516707 25.645 0.433374 23.87C0.355041 22.0934 0.333374 21.5284 0.333374 17C0.333374 12.4717 0.350041 11.9067 0.433374 10.13C0.516707 8.35337 0.795041 7.14671 1.20837 6.08337C1.62543 4.97034 2.28138 3.96224 3.13004 3.13004C3.96283 2.28209 4.97075 1.62626 6.08337 1.20837C7.14671 0.795041 8.35337 0.516707 10.13 0.433374C11.9067 0.355041 12.4717 0.333374 17 0.333374ZM17 8.66671C14.7899 8.66671 12.6703 9.54468 11.1075 11.1075C9.54468 12.6703 8.66671 14.7899 8.66671 17C8.66671 19.2102 9.54468 21.3298 11.1075 22.8926C12.6703 24.4554 14.7899 25.3334 17 25.3334C19.2102 25.3334 21.3298 24.4554 22.8926 22.8926C24.4554 21.3298 25.3334 19.2102 25.3334 17C25.3334 14.7899 24.4554 12.6703 22.8926 11.1075C21.3298 9.54468 19.2102 8.66671 17 8.66671V8.66671ZM27.8334 8.25004C27.8334 7.69751 27.6139 7.1676 27.2232 6.7769C26.8325 6.3862 26.3026 6.16671 25.75 6.16671C25.1975 6.16671 24.6676 6.3862 24.2769 6.7769C23.8862 7.1676 23.6667 7.69751 23.6667 8.25004C23.6667 8.80257 23.8862 9.33248 24.2769 9.72318C24.6676 10.1139 25.1975 10.3334 25.75 10.3334C26.3026 10.3334 26.8325 10.1139 27.2232 9.72318C27.6139 9.33248 27.8334 8.80257 27.8334 8.25004ZM17 12C18.3261 12 19.5979 12.5268 20.5356 13.4645C21.4733 14.4022 22 15.674 22 17C22 18.3261 21.4733 19.5979 20.5356 20.5356C19.5979 21.4733 18.3261 22 17 22C15.674 22 14.4022 21.4733 13.4645 20.5356C12.5268 19.5979 12 18.3261 12 17C12 15.674 12.5268 14.4022 13.4645 13.4645C14.4022 12.5268 15.674 12 17 12V12Z" fill="#998F8F"/>
</svg>
