<svg width="34" height="34" viewBox="0 0 34 34" fill="none" xmlns="http://www.w3.org/2000/svg">
<path d="M17 0.400024C7.83337 0.400024 0.333374 7.88336 0.333374 17.1C0.333374 25.4334 6.43337 32.35 14.4 33.6V21.9334H10.1667V17.1H14.4V13.4167C14.4 9.23336 16.8834 6.93336 20.7 6.93336C22.5167 6.93336 24.4167 7.25002 24.4167 7.25002V11.3667H22.3167C20.25 11.3667 19.6 12.65 19.6 13.9667V17.1H24.2334L23.4834 21.9334H19.6V33.6C23.5274 32.9798 27.1037 30.9759 29.6833 27.9501C32.2628 24.9244 33.6756 21.0761 33.6667 17.1C33.6667 7.88336 26.1667 0.400024 17 0.400024V0.400024Z" fill="url(#paint0_linear_361_76)"/>
<defs>
<linearGradient id="paint0_linear_361_76" x1="17.0001" y1="0.400024" x2="17.0001" y2="33.6" gradientUnits="userSpaceOnUse">
<stop stop-color="#E60606"/>
<stop offset="1" stop-color="#932C2C"/>
</linearGradient>
</defs>
</svg>
